<svg id="Layer_1" data-name="Layer 1" xmlns="http://www.w3.org/2000/svg" viewBox="0 0 180 180"><defs><style>.cls-1,.cls-4{fill:none;stroke-miterlimit:10;}.cls-1{stroke:#4d4d4d;stroke-width:3px;}.cls-2{fill:#4d4d4d;}.cls-3{fill:#1a1a1a;}.cls-4{stroke:#1a1a1a;stroke-width:4px;}.cls-5,.cls-7{fill:#fff;}.cls-5,.cls-6,.cls-8{opacity:0.2;}.cls-5,.cls-8{isolation:isolate;}.cls-8{fill:#040000;}</style></defs><path class="cls-1" d="M92,129.78c3.71-5.56,30.88-47.89,31.05-50.25s-1.26-3.29-4.7-8.92c-2.29-3.75-3.44-5.67-3.27-7.35.47-4.7,7.31-7.46,8.17-7.8,4.84-1.88,6.83-.24,17.32-.54,6.39-.18,9.58-.27,12.09-1.4,8.28-3.75,12-7,12-7,.6-.52,2-1.83,3.49-1.51a3.78,3.78,0,0,1,2.4,2.59c.78,2.69-2.18,5.52-3.77,7.08a18.64,18.64,0,0,1-3.42,2.66A35.49,35.49,0,0,1,149.29,62c-6.23.51-6.94-1.23-12.75-.87a30.58,30.58,0,0,0-11.76,3.25"/><path class="cls-1" d="M107,113.71c3.42-4.37,21.13-14.88,23.53-15.5,3.84-1,5.31.42,10.53-.8,2.49-.58,6.09-1.47,8.5-4.54,1.4-1.8,2.79-4.64,1.58-6.25-.63-.84-1.45-1.09-6.52-1.11-6.34,0-7.36,0-9.3.58a9.17,9.17,0,0,0-4.14,3.1"/><path class="cls-1" d="M166.78,52.5c.35,1.24,2,7,.81,10.57a12.3,12.3,0,0,1-2.91,4.77c-.85.83-3.44,3-16.19,3.53-5.86.22-7.25-.17-10.46.79a23.18,23.18,0,0,0-7.48,3.9"/><path class="cls-1" d="M159.16,71.15a9.21,9.21,0,0,1,1.16,7.07c-1,3.76-5.37,7.82-10,7.93"/><polygon class="cls-2" points="107.02 106.79 122.88 80.03 122.88 77.93 116.86 65.97 115.95 60.8 120.94 56.54 130.55 54.64 146.59 54.7 159.78 50.95 167.08 44.92 170.2 46.78 167.41 55.01 167.29 63.87 165.13 67.35 163.39 68.78 159.24 70.2 160.08 73.1 159.17 80.73 155.48 83.91 151.16 86.09 150.34 88.75 149.28 93.69 139.69 96.92 130.55 98.93 117.8 105.43 110.91 110.2 107.02 106.79"/><path class="cls-3" d="M89,133.85q13.52-21.73,26.57-43.73c1.07-1.84,2.13-3.69,3.16-5.54.52-.93,1-1.86,1.49-2.79a13.63,13.63,0,0,0,.61-1.34l0-.11s0,.06,0,0V80a3.83,3.83,0,0,0-.1-.62,7.75,7.75,0,0,0-1.34-2.44l-1.87-2.6c-1.25-1.78-2.42-3.57-3.56-5.41a23.27,23.27,0,0,1-1.6-3,7.75,7.75,0,0,1-.51-1.94,5.86,5.86,0,0,1,0-1.11,6.76,6.76,0,0,1,.18-1,9,9,0,0,1,1.79-3.42A15.1,15.1,0,0,1,116.48,56a22.19,22.19,0,0,1,6.15-3.19,13.93,13.93,0,0,1,3.56-.68,27.49,27.49,0,0,1,3.41,0c2.17.11,4.22.22,6.31.26s4.16,0,6.3-.11,4.24-.15,6.22-.37a15.09,15.09,0,0,0,2.77-.55,8.77,8.77,0,0,0,1.25-.47l1.41-.66c1.89-.9,3.73-1.86,5.51-2.91a41.19,41.19,0,0,0,5-3.4,12.54,12.54,0,0,1,1.43-1.13,6,6,0,0,1,2.1-.92,4.29,4.29,0,0,1,2.76.31,5.17,5.17,0,0,1,1.89,1.58,7,7,0,0,1,1,1.94,5.34,5.34,0,0,1,.23,2.37,8.16,8.16,0,0,1-1.58,3.72,19.87,19.87,0,0,1-2.3,2.63,26.61,26.61,0,0,1-2.53,2.27,19.52,19.52,0,0,1-2.9,1.86,29.9,29.9,0,0,1-3,1.47,36.15,36.15,0,0,1-12.89,3,25.17,25.17,0,0,1-3.35-.14,25.44,25.44,0,0,1-3.24-.63,21.49,21.49,0,0,0-6.13-.68,33.43,33.43,0,0,0-12.29,2.76,30.78,30.78,0,0,1,12.19-4.11,24.16,24.16,0,0,1,3.3-.16,25.28,25.28,0,0,1,3.29.34c1.06.16,2.06.31,3.07.37a23.78,23.78,0,0,0,3-.07,30.82,30.82,0,0,0,6-1.22,36.73,36.73,0,0,0,5.74-2.19c.92-.45,1.82-.93,2.68-1.46a17.33,17.33,0,0,0,2.4-1.71A26.14,26.14,0,0,0,167.49,52a15.5,15.5,0,0,0,1.85-2.23,4.68,4.68,0,0,0,.89-2.11,1.67,1.67,0,0,0-.1-.78,3,3,0,0,0-.49-.85,1.65,1.65,0,0,0-.54-.46.62.62,0,0,0-.36,0,2.9,2.9,0,0,0-.79.4,4.85,4.85,0,0,0-.49.37l-.57.5a44.87,44.87,0,0,1-5.52,3.83q-2.84,1.69-5.78,3.12l-1.48.71a12.2,12.2,0,0,1-1.73.67,18.39,18.39,0,0,1-3.5.67c-2.26.24-4.41.28-6.55.34a96.56,96.56,0,0,1-13-.35,28.39,28.39,0,0,0-3-.12,11.36,11.36,0,0,0-2.71.44,19.68,19.68,0,0,0-5.24,2.54A8.15,8.15,0,0,0,115,62.63c0,.19-.1.38-.13.57a2.74,2.74,0,0,0,0,.49,4.48,4.48,0,0,0,.26,1.16,20.08,20.08,0,0,0,1.27,2.68c1,1.84,2,3.71,3.14,5.49l1.7,2.7A9.28,9.28,0,0,1,122.68,79a6.4,6.4,0,0,1,.06,1l0,.46a1.8,1.8,0,0,1-.06.37c0,.12-.05.18-.08.27a15.19,15.19,0,0,1-.75,1.56c-.51,1-1,1.89-1.59,2.81-1.09,1.85-2.2,3.67-3.32,5.49-4.49,7.27-9.11,14.44-13.77,21.59S93.79,126.79,89,133.85Z"/><path class="cls-3" d="M104.86,116.78a12.87,12.87,0,0,1,1.64-2c.59-.62,1.21-1.21,1.85-1.78,1.28-1.14,2.59-2.24,3.94-3.28,2.7-2.11,5.49-4.09,8.34-6,1.43-1,2.86-1.88,4.35-2.75.74-.45,1.49-.88,2.26-1.3.39-.21.79-.42,1.22-.62a7.71,7.71,0,0,1,.79-.31l.7-.2a18.47,18.47,0,0,1,5.48-.4,18.5,18.5,0,0,0,4.57-.55,24.53,24.53,0,0,0,4.46-1.4,10.35,10.35,0,0,0,3.44-2.43A10,10,0,0,0,150,90.26a2.82,2.82,0,0,0,.13-.74,1.31,1.31,0,0,0-.05-.42s0,0,0-.07l0-.07s0,0,0,0a2,2,0,0,0-.7-.22,45.78,45.78,0,0,0-4.84-.46c-1.69-.08-3.39-.25-5.06-.35-.84,0-1.67-.09-2.45-.08a9.89,9.89,0,0,0-2.34.35,10.19,10.19,0,0,0-4.17,2.55A9.47,9.47,0,0,1,134.1,87a13.75,13.75,0,0,1,5.22-1.27c1.72-.14,3.42-.29,5.11-.36a39.41,39.41,0,0,1,5.34,0,5.88,5.88,0,0,1,1.74.45,3.51,3.51,0,0,1,1,.69c.15.15.26.28.37.41s.21.31.31.47a4.65,4.65,0,0,1,.61,2,6.64,6.64,0,0,1-.15,1.77A10.34,10.34,0,0,1,152.54,94a14.58,14.58,0,0,1-1.67,2.43,13.72,13.72,0,0,1-4.78,3.45,25.17,25.17,0,0,1-5.27,1.56,19.75,19.75,0,0,1-5.53.35,18.88,18.88,0,0,0-4.67-.06l-.53.09-.41.14c-.34.13-.71.29-1.08.47-.74.34-1.49.71-2.23,1.09q-2.24,1.16-4.46,2.36c-3,1.63-5.9,3.3-8.79,5.05-1.44.89-2.88,1.77-4.28,2.72A26.61,26.61,0,0,0,104.86,116.78Z"/><path class="cls-3" d="M168,51.7A26.56,26.56,0,0,1,170,58.43a13.38,13.38,0,0,1,.12,3.7,14.44,14.44,0,0,1-1,3.68A12.34,12.34,0,0,1,167,69.08a7.23,7.23,0,0,1-1.67,1.4,11.09,11.09,0,0,1-1.78.91,28.85,28.85,0,0,1-7.12,1.76,60.16,60.16,0,0,1-7.06.51c-2.33.06-4.71,0-6.94-.15a17.6,17.6,0,0,0-3.18.08,21.62,21.62,0,0,0-3.2.65,34.11,34.11,0,0,0-6.34,2.51,19.51,19.51,0,0,1,5.57-4.4,23.16,23.16,0,0,1,3.38-1.43,17.9,17.9,0,0,1,3.68-.65l6.86-.46c2.26-.14,4.51-.35,6.72-.61A36.7,36.7,0,0,0,162.26,68a10.39,10.39,0,0,0,1.34-.53,4.45,4.45,0,0,0,1.07-.69,11.47,11.47,0,0,0,2-2.28A10.27,10.27,0,0,0,168,61.72a14.79,14.79,0,0,0,.43-3.19A42,42,0,0,0,168,51.7Z"/><path class="cls-4" d="M159.92,71.54a9.83,9.83,0,0,1,1.23,7.51c-1.12,4-5.67,8.31-10.54,8.42"/><path class="cls-2" d="M45.74,26.65h-.8c-2.7,0-5.4,2.5-6.2,5.6l-1.5,6.9c-1.3,3.1-3.5,5.4-7.1,8.3a19.75,19.75,0,0,0-6.1,8.7l-.2.4c-.9,2.3-1.6,4.3-2.2,6.1a43.12,43.12,0,0,1-6.1,12.8L4,91.85c-3.6,4.6-3.2,10.8.9,14.3s14.4,6.3,17.9,6.3a3.07,3.07,0,0,0,2.4-.8,28,28,0,0,0,3.7-4.8c2.3-3.6,4-6.2,9.9-6.2,8.7,0,16.3-8,19.9-11.8h0l2.2-2.5c1.5,2.3,3.1,6.1,2,10.1a17.67,17.67,0,0,1-2.3,4.8,43.29,43.29,0,0,1-8,8l-.2.2c-7.5,6.1-20,16.2-22.1,30.3C17,143.35,17,152.65,17,163.35V167h101.6v-3.6c0-10.7.1-20-13.3-23.6.4-1.6,1-3.6,1.6-5.9,2.6-9.2,6.2-21.9,6.2-30.2,0-19.6-6.2-36-17.9-47.5a59.07,59.07,0,0,0-36.8-16.4l-12.1-12.5Z"/><path class="cls-5" d="M68.44,144.85c43.1,0,47.5,4.8,47.5,4.8h.6c-1.9-10.2-24.5-11.3-24.5-11.3H44.94s-23.4.8-24.7,11.3h.6C20.84,149.55,25.34,144.85,68.44,144.85Z"/><g class="cls-6"><path class="cls-7" d="M42.34,46.55c8.1-5,2.6-18,2.6-18a5,5,0,0,0-5,4l-1.5,6.9c-1.4,3.4-3.7,5.7-7.5,8.8a18,18,0,0,0-5.8,8.3l-.2.4c-.9,2.3-1.5,4.2-2.1,6a42.61,42.61,0,0,1-6.2,13.1L5.14,92.55c-.1.2-.3.3-.4.5a6,6,0,0,0-1,7.7s19-23.5,21.5-26.7C29.64,68.05,26.84,56.25,42.34,46.55Z"/></g><path class="cls-3" d="M43.44,56.15c-5.2,2.1-6.6,11.1-6.6,11.1,5.1-4.4,7.5.7,12.6-3.4C53.64,60.55,48.54,54.05,43.44,56.15Z"/><path class="cls-8" d="M67.54,72.45c-1.8,3.5-6.3,10.6-6.3,10.6s-.5,1.4-1,3.5c0,0,2.1-.2,2.5,6.4.1,1.7.9,7.8,2,5.2,3-7.4,5.2-16.4,5.1-19.5S69.34,69,67.54,72.45Z"/><path class="cls-8" d="M57.84,41.55s40.8,5.1,40.8,44.1c0,26.1-17.4,33.4-22,51,0,0,19.3.2,27.9,4.2,0,0,9.2-24.8,9.2-39.6C113.74,86.25,102.34,40.35,57.84,41.55Z"/><path class="cls-8" d="M42.84,98.55c-9.1-4.5-11.4-9.8-14.9.7-3.4,10.2-8.5,11.9-5.1,13s7.8-10.5,10.8-10.6S46.24,100.25,42.84,98.55Z"/><path class="cls-3" d="M44.94,28.65l12.9,12.9c25.3,1.7,53.5,20.1,53.5,62,0,11.1-7,31.5-8.3,37.6,14.4,3,13.7,11.6,13.7,23.8H19.24c0-12-.7-20.5,13.1-23.6,1.4-14.2,14.4-24.5,21.7-30.5a41.79,41.79,0,0,0,8.4-8.4,20.73,20.73,0,0,0,2.6-5.4c1.8-6.4-2.3-12.1-3.8-13.9l-3.8,4.4c-3.9,4-10.7,11.1-18.5,11.1-10,0-10.3,7.1-15,11.7a1.8,1.8,0,0,1-1,.2c-3.3,0-12.9-2.7-16.6-5.8-3.2-2.7-3.6-7.8-.6-11.5l11.7-16.5c5.2-7.6,5.5-11.7,8.5-19.3a17.58,17.58,0,0,1,5.6-8.3c3.8-3.2,6.3-5.6,7.8-9.3l1.5-7c.4-2.3,2.3-4.2,4.1-4.2m1.7-4h-1.7c-3.7,0-7.2,3.1-8.1,7.2V32l-1.4,6.6c-1.2,2.7-3.1,4.6-6.5,7.4a21.24,21.24,0,0,0-6.7,9.5l-.2.4c-.9,2.3-1.6,4.4-2.2,6.2A39.69,39.69,0,0,1,14,74.35L2.44,90.65c-4.2,5.3-3.8,12.8,1.2,17,4.6,3.9,15.4,6.8,19.2,6.8a5.2,5.2,0,0,0,3.8-1.3,28.79,28.79,0,0,0,4-5.2c2.2-3.4,3.4-5.3,8.2-5.3,9.6,0,17.5-8.4,21.4-12.4l.1-.1.1-.1.3-.3a9.51,9.51,0,0,1,.5,6,13.52,13.52,0,0,1-2,4.2,39.08,39.08,0,0,1-7.6,7.6l-.2.2c-7.6,6.1-19.8,16.1-22.6,30.3-5.8,1.8-9.6,5-11.6,9.5s-2,9.7-1.9,15.7v5.6h105.5v-5.6c0-6.1,0-11.3-2-15.9-2-4.3-5.4-7.3-10.8-9.1.3-1.2.7-2.6,1.1-4,2.7-9.4,6.3-22.2,6.3-30.8,0-42.1-27.7-63.3-55.7-65.8l-12-11.8-1.1-1.2Z"/><path class="cls-3" d="M68.44,138.85a253.11,253.11,0,0,1,31.4,1.7,47.63,47.63,0,0,1,5.2,1l.7-4a49.37,49.37,0,0,0-5.3-1,261.21,261.21,0,0,0-31.9-1.7h0a259.52,259.52,0,0,0-31.8,1.6,54.82,54.82,0,0,0-5.6,1l.8,3.9a45.12,45.12,0,0,1,5.3-1A268.33,268.33,0,0,1,68.44,138.85Z"/></svg>