<?xml version="1.0" encoding="UTF-8" standalone="no"?>
<svg
   xmlns:dc="http://purl.org/dc/elements/1.1/"
   xmlns:cc="http://creativecommons.org/ns#"
   xmlns:rdf="http://www.w3.org/1999/02/22-rdf-syntax-ns#"
   xmlns:svg="http://www.w3.org/2000/svg"
   xmlns="http://www.w3.org/2000/svg"
   xmlns:sodipodi="http://sodipodi.sourceforge.net/DTD/sodipodi-0.dtd"
   xmlns:inkscape="http://www.inkscape.org/namespaces/inkscape"
   version="1.1"
   id="Layer_1"
   x="0px"
   y="0px"
   viewBox="0 0 180 180"
   style="enable-background:new 0 0 180 180;"
   xml:space="preserve"
   sodipodi:docname="TT.svg"
   inkscape:version="1.0.1 (3bc2e813f5, 2020-09-07)"><metadata
   id="metadata33"><rdf:RDF><cc:Work
       rdf:about=""><dc:format>image/svg+xml</dc:format><dc:type
         rdf:resource="http://purl.org/dc/dcmitype/StillImage" /><dc:title>n</dc:title></cc:Work></rdf:RDF></metadata><sodipodi:namedview
   pagecolor="#ffffff"
   bordercolor="#666666"
   borderopacity="1"
   objecttolerance="10"
   gridtolerance="10"
   guidetolerance="10"
   inkscape:pageopacity="0"
   inkscape:pageshadow="2"
   inkscape:window-width="1920"
   inkscape:window-height="997"
   id="namedview31"
   showgrid="false"
   inkscape:zoom="3.564186"
   inkscape:cx="121.1278"
   inkscape:cy="84.049993"
   inkscape:window-x="1600"
   inkscape:window-y="28"
   inkscape:window-maximized="1"
   inkscape:current-layer="Layer_1" />
<defs
   id="defs4"><inkscape:path-effect
   effect="powerstroke"
   id="path-effect550"
   is_visible="true"
   lpeversion="1"
   offset_points="0.54193885,0.64975248"
   sort_points="true"
   interpolator_type="CentripetalCatmullRom"
   interpolator_beta="0.75"
   start_linecap_type="round"
   linejoin_type="spiro"
   miter_limit="4"
   scale_width="1"
   end_linecap_type="round" /><inkscape:path-effect
   effect="simplify"
   id="path-effect548"
   is_visible="true"
   lpeversion="1"
   steps="1"
   threshold="0.0032025118"
   smooth_angles="0"
   helper_size="0"
   simplify_individual_paths="false"
   simplify_just_coalesce="false"
   step="1" /><inkscape:path-effect
   effect="powerstroke"
   id="path-effect543"
   is_visible="true"
   lpeversion="1"
   offset_points="0.58357327,0.64975248"
   sort_points="true"
   interpolator_type="CentripetalCatmullRom"
   interpolator_beta="0.75"
   start_linecap_type="round"
   linejoin_type="spiro"
   miter_limit="4"
   scale_width="1"
   end_linecap_type="round" /><inkscape:path-effect
   effect="simplify"
   id="path-effect541"
   is_visible="true"
   lpeversion="1"
   steps="1"
   threshold="0.0032025118"
   smooth_angles="0"
   helper_size="0"
   simplify_individual_paths="false"
   simplify_just_coalesce="false"
   step="1" /><inkscape:path-effect
   effect="powerstroke"
   id="path-effect536"
   is_visible="true"
   lpeversion="1"
   offset_points="0.31618555,0.64975248"
   sort_points="true"
   interpolator_type="CentripetalCatmullRom"
   interpolator_beta="0.75"
   start_linecap_type="round"
   linejoin_type="spiro"
   miter_limit="4"
   scale_width="1"
   end_linecap_type="round" /><inkscape:path-effect
   effect="simplify"
   id="path-effect534"
   is_visible="true"
   lpeversion="1"
   steps="1"
   threshold="0.0032025118"
   smooth_angles="0"
   helper_size="0"
   simplify_individual_paths="false"
   simplify_just_coalesce="false"
   step="1" /><inkscape:path-effect
   effect="powerstroke"
   id="path-effect529"
   is_visible="true"
   lpeversion="1"
   offset_points="0.66255419,0.64975248"
   sort_points="true"
   interpolator_type="CentripetalCatmullRom"
   interpolator_beta="0.75"
   start_linecap_type="round"
   linejoin_type="spiro"
   miter_limit="4"
   scale_width="1"
   end_linecap_type="round" /><inkscape:path-effect
   effect="simplify"
   id="path-effect527"
   is_visible="true"
   lpeversion="1"
   steps="1"
   threshold="0.0032025118"
   smooth_angles="0"
   helper_size="0"
   simplify_individual_paths="false"
   simplify_just_coalesce="false"
   step="1" /><inkscape:path-effect
   effect="powerstroke"
   id="path-effect522"
   is_visible="true"
   lpeversion="1"
   offset_points="0.52264712,0.64975248"
   sort_points="true"
   interpolator_type="CentripetalCatmullRom"
   interpolator_beta="0.75"
   start_linecap_type="round"
   linejoin_type="spiro"
   miter_limit="4"
   scale_width="1"
   end_linecap_type="round" /><inkscape:path-effect
   effect="simplify"
   id="path-effect520"
   is_visible="true"
   lpeversion="1"
   steps="1"
   threshold="0.0032025118"
   smooth_angles="0"
   helper_size="0"
   simplify_individual_paths="false"
   simplify_just_coalesce="false"
   step="1" /><inkscape:path-effect
   effect="powerstroke"
   id="path-effect515"
   is_visible="true"
   lpeversion="1"
   offset_points="0.43509708,0.64975248"
   sort_points="true"
   interpolator_type="CentripetalCatmullRom"
   interpolator_beta="0.75"
   start_linecap_type="round"
   linejoin_type="spiro"
   miter_limit="4"
   scale_width="1"
   end_linecap_type="round" /><inkscape:path-effect
   effect="simplify"
   id="path-effect513"
   is_visible="true"
   lpeversion="1"
   steps="1"
   threshold="0.0032025118"
   smooth_angles="0"
   helper_size="0"
   simplify_individual_paths="false"
   simplify_just_coalesce="false"
   step="1" /><inkscape:path-effect
   effect="powerstroke"
   id="path-effect508"
   is_visible="true"
   lpeversion="1"
   offset_points="0.3591722,0.64975248"
   sort_points="true"
   interpolator_type="CentripetalCatmullRom"
   interpolator_beta="0.75"
   start_linecap_type="round"
   linejoin_type="spiro"
   miter_limit="4"
   scale_width="1"
   end_linecap_type="round" /><inkscape:path-effect
   effect="simplify"
   id="path-effect506"
   is_visible="true"
   lpeversion="1"
   steps="1"
   threshold="0.0032025118"
   smooth_angles="0"
   helper_size="0"
   simplify_individual_paths="false"
   simplify_just_coalesce="false"
   step="1" /><inkscape:path-effect
   effect="powerstroke"
   id="path-effect501"
   is_visible="true"
   lpeversion="1"
   offset_points="0.29148948,0.64975248"
   sort_points="true"
   interpolator_type="CentripetalCatmullRom"
   interpolator_beta="0.75"
   start_linecap_type="round"
   linejoin_type="spiro"
   miter_limit="4"
   scale_width="1"
   end_linecap_type="round" /><inkscape:path-effect
   effect="simplify"
   id="path-effect499"
   is_visible="true"
   lpeversion="1"
   steps="1"
   threshold="0.0032025118"
   smooth_angles="0"
   helper_size="0"
   simplify_individual_paths="false"
   simplify_just_coalesce="false"
   step="1" /><inkscape:path-effect
   effect="powerstroke"
   id="path-effect494"
   is_visible="true"
   lpeversion="1"
   offset_points="0.2376489,0.64975248"
   sort_points="true"
   interpolator_type="CentripetalCatmullRom"
   interpolator_beta="0.75"
   start_linecap_type="round"
   linejoin_type="spiro"
   miter_limit="4"
   scale_width="1"
   end_linecap_type="round" /><inkscape:path-effect
   effect="simplify"
   id="path-effect492"
   is_visible="true"
   lpeversion="1"
   steps="1"
   threshold="0.0032025118"
   smooth_angles="0"
   helper_size="0"
   simplify_individual_paths="false"
   simplify_just_coalesce="false"
   step="1" /><inkscape:path-effect
   effect="powerstroke"
   id="path-effect487"
   is_visible="true"
   lpeversion="1"
   offset_points="0.86586593,0.46410891"
   sort_points="true"
   interpolator_type="CentripetalCatmullRom"
   interpolator_beta="0.75"
   start_linecap_type="round"
   linejoin_type="spiro"
   miter_limit="4"
   scale_width="1"
   end_linecap_type="round" /><inkscape:path-effect
   effect="simplify"
   id="path-effect485"
   is_visible="true"
   lpeversion="1"
   steps="1"
   threshold="0.0032025118"
   smooth_angles="0"
   helper_size="0"
   simplify_individual_paths="false"
   simplify_just_coalesce="false"
   step="1" /><inkscape:path-effect
   effect="powerstroke"
   id="path-effect480"
   is_visible="true"
   lpeversion="1"
   offset_points="0.14983683,1.7952128"
   sort_points="true"
   interpolator_type="CentripetalCatmullRom"
   interpolator_beta="0.75"
   start_linecap_type="round"
   linejoin_type="spiro"
   miter_limit="4"
   scale_width="1"
   end_linecap_type="round" /><inkscape:path-effect
   effect="simplify"
   id="path-effect478"
   is_visible="true"
   lpeversion="1"
   steps="1"
   threshold="0.0032025118"
   smooth_angles="0"
   helper_size="0"
   simplify_individual_paths="false"
   simplify_just_coalesce="false"
   step="1" /><inkscape:path-effect
   effect="powerstroke"
   id="path-effect473"
   is_visible="true"
   lpeversion="1"
   offset_points="0.35069092,1.7952128"
   sort_points="true"
   interpolator_type="CentripetalCatmullRom"
   interpolator_beta="0.75"
   start_linecap_type="round"
   linejoin_type="spiro"
   miter_limit="4"
   scale_width="1"
   end_linecap_type="round" /><inkscape:path-effect
   effect="simplify"
   id="path-effect471"
   is_visible="true"
   lpeversion="1"
   steps="1"
   threshold="0.0032025118"
   smooth_angles="0"
   helper_size="0"
   simplify_individual_paths="false"
   simplify_just_coalesce="false"
   step="1" /><inkscape:path-effect
   effect="powerstroke"
   id="path-effect466"
   is_visible="true"
   lpeversion="1"
   offset_points="1.0186101,1.7952128"
   sort_points="true"
   interpolator_type="CentripetalCatmullRom"
   interpolator_beta="0.75"
   start_linecap_type="round"
   linejoin_type="spiro"
   miter_limit="4"
   scale_width="1"
   end_linecap_type="round" /><inkscape:path-effect
   effect="simplify"
   id="path-effect464"
   is_visible="true"
   lpeversion="1"
   steps="1"
   threshold="0.0032025118"
   smooth_angles="0"
   helper_size="0"
   simplify_individual_paths="false"
   simplify_just_coalesce="false"
   step="1" /><inkscape:path-effect
   effect="powerstroke"
   id="path-effect459"
   is_visible="true"
   lpeversion="1"
   offset_points="0.84682482,1.7952128"
   sort_points="true"
   interpolator_type="CentripetalCatmullRom"
   interpolator_beta="0.75"
   start_linecap_type="round"
   linejoin_type="spiro"
   miter_limit="4"
   scale_width="1"
   end_linecap_type="round" /><inkscape:path-effect
   effect="simplify"
   id="path-effect457"
   is_visible="true"
   lpeversion="1"
   steps="1"
   threshold="0.0032025118"
   smooth_angles="0"
   helper_size="0"
   simplify_individual_paths="false"
   simplify_just_coalesce="false"
   step="1" /><inkscape:path-effect
   effect="powerstroke"
   id="path-effect452"
   is_visible="true"
   lpeversion="1"
   offset_points="0.44338711,1.7952128"
   sort_points="true"
   interpolator_type="CentripetalCatmullRom"
   interpolator_beta="0.75"
   start_linecap_type="round"
   linejoin_type="spiro"
   miter_limit="4"
   scale_width="1"
   end_linecap_type="round" /><inkscape:path-effect
   effect="simplify"
   id="path-effect450"
   is_visible="true"
   lpeversion="1"
   steps="1"
   threshold="0.0032025118"
   smooth_angles="0"
   helper_size="0"
   simplify_individual_paths="false"
   simplify_just_coalesce="false"
   step="1" /><inkscape:path-effect
   effect="powerstroke"
   id="path-effect445"
   is_visible="true"
   lpeversion="1"
   offset_points="0.52053743,1.7952128"
   sort_points="true"
   interpolator_type="CentripetalCatmullRom"
   interpolator_beta="0.75"
   start_linecap_type="round"
   linejoin_type="spiro"
   miter_limit="4"
   scale_width="1"
   end_linecap_type="round" /><inkscape:path-effect
   effect="simplify"
   id="path-effect443"
   is_visible="true"
   lpeversion="1"
   steps="1"
   threshold="0.0032025118"
   smooth_angles="0"
   helper_size="0"
   simplify_individual_paths="false"
   simplify_just_coalesce="false"
   step="1" /><inkscape:path-effect
   effect="powerstroke"
   id="path-effect438"
   is_visible="true"
   lpeversion="1"
   offset_points="0.62218142,2.9920213"
   sort_points="true"
   interpolator_type="CentripetalCatmullRom"
   interpolator_beta="0.75"
   start_linecap_type="round"
   linejoin_type="spiro"
   miter_limit="4"
   scale_width="1"
   end_linecap_type="round" /><inkscape:path-effect
   effect="simplify"
   id="path-effect436"
   is_visible="true"
   lpeversion="1"
   steps="1"
   threshold="0.0032025118"
   smooth_angles="0"
   helper_size="0"
   simplify_individual_paths="false"
   simplify_just_coalesce="false"
   step="1" /><inkscape:path-effect
   effect="powerstroke"
   id="path-effect431"
   is_visible="true"
   lpeversion="1"
   offset_points="0.7175411,2.9920213"
   sort_points="true"
   interpolator_type="CentripetalCatmullRom"
   interpolator_beta="0.75"
   start_linecap_type="round"
   linejoin_type="spiro"
   miter_limit="4"
   scale_width="1"
   end_linecap_type="round" /><inkscape:path-effect
   effect="simplify"
   id="path-effect429"
   is_visible="true"
   lpeversion="1"
   steps="1"
   threshold="0.0032025118"
   smooth_angles="0"
   helper_size="0"
   simplify_individual_paths="false"
   simplify_just_coalesce="false"
   step="1" /><inkscape:path-effect
   effect="powerstroke"
   id="path-effect424"
   is_visible="true"
   lpeversion="1"
   offset_points="0.93662946,2.9920213"
   sort_points="true"
   interpolator_type="CentripetalCatmullRom"
   interpolator_beta="0.75"
   start_linecap_type="round"
   linejoin_type="spiro"
   miter_limit="4"
   scale_width="1"
   end_linecap_type="round" /><inkscape:path-effect
   effect="simplify"
   id="path-effect422"
   is_visible="true"
   lpeversion="1"
   steps="1"
   threshold="0.0032025118"
   smooth_angles="0"
   helper_size="0"
   simplify_individual_paths="false"
   simplify_just_coalesce="false"
   step="1" /><inkscape:path-effect
   effect="powerstroke"
   id="path-effect417"
   is_visible="true"
   lpeversion="1"
   offset_points="0.52217019,2.9920213"
   sort_points="true"
   interpolator_type="CentripetalCatmullRom"
   interpolator_beta="0.75"
   start_linecap_type="round"
   linejoin_type="spiro"
   miter_limit="4"
   scale_width="1"
   end_linecap_type="round" /><inkscape:path-effect
   effect="simplify"
   id="path-effect415"
   is_visible="true"
   lpeversion="1"
   steps="1"
   threshold="0.0032025118"
   smooth_angles="0"
   helper_size="0"
   simplify_individual_paths="false"
   simplify_just_coalesce="false"
   step="1" /><inkscape:path-effect
   effect="powerstroke"
   id="path-effect410"
   is_visible="true"
   lpeversion="1"
   offset_points="0.95291855,2.9920213"
   sort_points="true"
   interpolator_type="CentripetalCatmullRom"
   interpolator_beta="0.75"
   start_linecap_type="round"
   linejoin_type="spiro"
   miter_limit="4"
   scale_width="1"
   end_linecap_type="round" /><inkscape:path-effect
   effect="simplify"
   id="path-effect408"
   is_visible="true"
   lpeversion="1"
   steps="1"
   threshold="0.0032025118"
   smooth_angles="0"
   helper_size="0"
   simplify_individual_paths="false"
   simplify_just_coalesce="false"
   step="1" /><inkscape:path-effect
   effect="powerstroke"
   id="path-effect403"
   is_visible="true"
   lpeversion="1"
   offset_points="0.45874711,2.9920213"
   sort_points="true"
   interpolator_type="CentripetalCatmullRom"
   interpolator_beta="0.75"
   start_linecap_type="round"
   linejoin_type="spiro"
   miter_limit="4"
   scale_width="1"
   end_linecap_type="round" /><inkscape:path-effect
   effect="simplify"
   id="path-effect401"
   is_visible="true"
   lpeversion="1"
   steps="1"
   threshold="0.0032025118"
   smooth_angles="0"
   helper_size="0"
   simplify_individual_paths="false"
   simplify_just_coalesce="false"
   step="1" /><inkscape:path-effect
   effect="powerstroke"
   id="path-effect396"
   is_visible="true"
   lpeversion="1"
   offset_points="1,0.5"
   sort_points="true"
   interpolator_type="CentripetalCatmullRom"
   interpolator_beta="0.75"
   start_linecap_type="round"
   linejoin_type="spiro"
   miter_limit="4"
   scale_width="1"
   end_linecap_type="round" /><inkscape:path-effect
   effect="simplify"
   id="path-effect394"
   is_visible="true"
   lpeversion="1"
   steps="1"
   threshold="0.0032025118"
   smooth_angles="0"
   helper_size="0"
   simplify_individual_paths="false"
   simplify_just_coalesce="false"
   step="1" /><inkscape:path-effect
   effect="powerstroke"
   id="path-effect389"
   is_visible="true"
   lpeversion="1"
   offset_points="0.38397935,2.9920213"
   sort_points="true"
   interpolator_type="CentripetalCatmullRom"
   interpolator_beta="0.75"
   start_linecap_type="round"
   linejoin_type="spiro"
   miter_limit="4"
   scale_width="1"
   end_linecap_type="round" /><inkscape:path-effect
   effect="simplify"
   id="path-effect387"
   is_visible="true"
   lpeversion="1"
   steps="1"
   threshold="0.0032025118"
   smooth_angles="0"
   helper_size="0"
   simplify_individual_paths="false"
   simplify_just_coalesce="false"
   step="1" /><inkscape:path-effect
   effect="powerstroke"
   id="path-effect382"
   is_visible="true"
   lpeversion="1"
   offset_points="0.38816532,2.9920213"
   sort_points="true"
   interpolator_type="CentripetalCatmullRom"
   interpolator_beta="0.75"
   start_linecap_type="round"
   linejoin_type="spiro"
   miter_limit="4"
   scale_width="1"
   end_linecap_type="round" /><inkscape:path-effect
   effect="simplify"
   id="path-effect380"
   is_visible="true"
   lpeversion="1"
   steps="1"
   threshold="0.0032025118"
   smooth_angles="0"
   helper_size="0"
   simplify_individual_paths="false"
   simplify_just_coalesce="false"
   step="1" />
<style
   id="style2">
.clsN-1{fill:none;}.clsN-2{fill:#f8f8f8;}.clsN-3,.clsN-5{fill:#fff;}.clsN-3,.clsN-4{opacity:0.2;}.clsN-6{fill:#1a1a1a;}</style>
</defs>
<title
   id="title6">n</title>
<rect
   class="clsN-1"
   width="180"
   height="180"
   id="rect8" />
<path
   class="clsN-2"
   d="M73.07,20.25h-.83c-2.72,0-5.43,2.48-6.16,5.64l-1.45,6.88c-1.32,3.14-3.54,5.36-7.13,8.32a19.11,19.11,0,0,0-6.06,8.69l-.17.42c-.9,2.29-1.56,4.3-2.16,6.07A43.59,43.59,0,0,1,43,69.12L31.37,85.5c-3.62,4.51-3.22,10.76.92,14.27s14.4,6.3,17.9,6.3a3.37,3.37,0,0,0,2.42-.78,24.78,24.78,0,0,0,3.7-4.85c2.31-3.6,4-6.2,9.93-6.23,8.73,0,16.28-7.95,19.91-11.76l0,0,0,0,2.18-2.52c1.46,2.33,3.14,6.13,2,10.11a16.46,16.46,0,0,1-2.3,4.79,40.35,40.35,0,0,1-8,8l-.19.16c-7.52,6.08-20,16.15-22.08,30.28-13.33,3.64-13.3,12.93-13.27,23.62v3.61H146.1v-3.6c0-10.69.06-20-13.28-23.63.41-1.59,1-3.64,1.64-5.9,2.63-9.24,6.24-21.9,6.24-30.2,0-19.56-6.19-36-17.89-47.47A59,59,0,0,0,86.05,33.21L73.66,20.84l-.59-.59Z"
   id="path10" />
<path
   class="clsN-3"
   d="M95.71,138.41c43.07,0,47.54,4.75,47.54,4.75h.59c-1.93-10.18-24.49-11.3-24.49-11.3H72.24s-23.36.81-24.66,11.3h.59S52.64,138.41,95.71,138.41Z"
   id="path12" />
<g
   class="clsN-4"
   id="g16">
<path
   class="clsN-5"
   d="M69.64,40.21c8.06-5,2.6-18,2.6-18a5,5,0,0,0-5,4l-1.46,6.92c-1.41,3.38-3.71,5.7-7.46,8.8a18,18,0,0,0-5.76,8.26l-.16.42c-.89,2.26-1.52,4.17-2.14,6a44.74,44.74,0,0,1-6.22,13.1L32.42,86.14c-.15.15-.3.31-.44.47a6,6,0,0,0-1,7.74S50,70.9,52.49,67.61C57,61.63,54.16,49.84,69.64,40.21Z"
   id="path14" />
</g>
<path
   class="clsN-6"
   d="M70.78,49.77c-5.23,2.14-6.64,11.09-6.64,11.09,5.08-4.42,7.53.65,12.59-3.36C81,54.16,75.9,47.67,70.78,49.77Z"
   id="path18" />
<path
   class="clsN-4"
   d="M94.87,66.07c-1.82,3.49-6.33,10.57-6.33,10.57s-.47,1.43-1.05,3.46c0,0,2.08-.23,2.47,6.39.1,1.72.93,7.76,2,5.18C95,84.23,97.14,75.23,97.1,72.18S96.68,62.58,94.87,66.07Z"
   id="path20" />
<path
   class="clsN-4"
   d="M85.17,35.15S126,40.22,126,79.26c0,26.14-17.38,33.44-22,51,0,0,19.33.15,27.88,4.19,0,0,9.18-24.84,9.18-39.56C141.05,79.83,129.61,34,85.17,35.15Z"
   id="path22" />
<path
   class="clsN-4"
   d="M70.12,92.2c-9.11-4.47-11.41-9.79-14.91.72-3.4,10.18-8.55,11.93-5.09,13s7.74-10.45,10.77-10.64S73.53,93.87,70.12,92.2Z"
   id="path24" />
<path
   class="clsN-6"
   d="M72.24,22.25l12.93,12.9c25.26,1.71,53.53,20.1,53.53,62,0,11.12-7,31.49-8.29,37.57,14.39,3.05,13.69,11.63,13.69,23.76H46.54c0-12-.68-20.47,13.08-23.63C61,120.66,74,110.31,81.34,104.33a41.62,41.62,0,0,0,8.41-8.44,18.34,18.34,0,0,0,2.57-5.37c1.82-6.37-2.3-12.09-3.78-13.88l-3.83,4.43C80.85,85.12,74,92.18,66.23,92.21c-10.05.05-10.29,7.09-15,11.65a1.69,1.69,0,0,1-1,.21c-3.27,0-12.92-2.68-16.61-5.82-3.22-2.74-3.64-7.82-.62-11.54l11.7-16.46c5.23-7.6,5.46-11.65,8.48-19.32a17.36,17.36,0,0,1,5.64-8.3c3.81-3.15,6.28-5.61,7.77-9.27l1.48-7c.5-2.16,2.39-4.09,4.21-4.09m1.66-4H72.24c-3.68,0-7.16,3.09-8.11,7.19v.08l-1.39,6.64c-1.18,2.68-3.14,4.62-6.49,7.39a20.82,20.82,0,0,0-6.66,9.51l-.16.41c-.92,2.34-1.6,4.37-2.19,6.17A41.6,41.6,0,0,1,41.38,68L29.77,84.3C25.52,89.65,26,97.09,31,101.3c4.6,3.91,15.36,6.77,19.2,6.77A5.36,5.36,0,0,0,54,106.73a27.63,27.63,0,0,0,4-5.21c2.18-3.41,3.38-5.28,8.25-5.31,9.58,0,17.53-8.37,21.35-12.38l.07-.07.06-.07L88,83.4a9.35,9.35,0,0,1,.49,6,14.14,14.14,0,0,1-2,4.21,38.38,38.38,0,0,1-7.63,7.59l-.19.16c-7.53,6.1-19.83,16.06-22.58,30.27-5.78,1.84-9.58,5-11.57,9.54s-2,9.68-1.94,15.66v5.6H148.1v-5.6c0-6.07,0-11.32-2-15.88-2-4.32-5.44-7.28-10.8-9.1.33-1.2.71-2.56,1.13-4,2.66-9.36,6.31-22.17,6.31-30.75C142.7,55,115,33.84,87,31.28L75.07,19.42,73.9,18.25Z"
   id="path26" />
<path
   class="clsN-6"
   d="M95.71,132.41a252.5,252.5,0,0,1,31.36,1.65,43.67,43.67,0,0,1,5.17,1l.66-4a46.29,46.29,0,0,0-5.32-1,254.17,254.17,0,0,0-31.87-1.69h0a254,254,0,0,0-31.86,1.69,47,47,0,0,0-5.58,1l.82,3.91a42.8,42.8,0,0,1,5.26-1A252.6,252.6,0,0,1,95.71,132.41Z"
   id="path28" />
<path
   id="path20-6"
   style="fill:#1a1a1a;stroke-width:0.719613"
   d="m 148.28125,10.382812 c -9.53961,-0.245971 -19.03984,6.834439 -19.38477,17.650391 l -8.29687,-1.701172 -1.53516,-0.314453 -1.14843,1.070313 c -1.51611,1.365536 -2.59107,3.124285 -3.08985,5.054687 l -0.32736,0.825771 -0.41287,1.338292 c 4.60712,3.964489 3.00058,2.786614 7.67358,7.15688 -0.6283,1.501466 -5.77673,1.870058 -5.70235,2.697874 0.14438,1.60676 7.61649,1.693404 10.22932,-2.292077 -3.54583,-3.539385 -5.2898,-4.604334 -8.88999,-8.369316 0.70378,-2.033901 0.86669,-2.894734 2.5,-4.417969 l 12.23047,2.554688 -0.14843,-0.917969 c -1.00713,-6.394358 2.4128,-12.792188 8.44531,-15.798828 6.03251,-3.006732 13.28104,-1.926104 17.90039,2.667969 l 0.0176,-0.01953 c 4.55996,4.643778 5.39966,11.694947 2.07226,17.416016 -3.32742,5.721056 -10.05225,8.788015 -16.60937,7.578125 l -0.94531,-0.173828 2.13867,11.9375 c -1.63344,1.523256 -2.49535,1.627748 -4.65235,2.251953 -4.67895,-4.509483 -6.49281,-6.757094 -8.83026,-9.073472 -2.31452,2.636064 -3.47577,2.92376 -3.59165,7.296848 -0.13142,4.959842 2.24723,2.413112 3.13946,2.027331 -0.61349,-2.400673 -0.70484,-3.315383 0.66959,-5.334442 0,0 6.80235,7.305941 7.67927,8.282954 l 1.6875,-0.476563 0.57422,-0.15625 c 2.00956,-0.412386 3.8639,-1.389969 5.32812,-2.80664 l 1.14649,-1.070313 -0.26563,-1.498047 -1.4414,-8.09375 c 16.2888,0.143646 25.1475,-18.849955 14.03906,-30.099609 l -0.0215,0.01953 c -3.49597,-3.476977 -7.84154,-5.101085 -12.17773,-5.212891 z"
   sodipodi:nodetypes="sccccccccsccccccccscccccscscccccccccss" /></svg>
